<?xml version="1.0" encoding="UTF-8"?>
<svg width="50mm" height="50mm" version="1.1" viewBox="0 0 50 50" xmlns="http://www.w3.org/2000/svg" xmlns:xlink="http://www.w3.org/1999/xlink">
 <defs>
  <linearGradient id="a">
   <stop stop-color="#e0005e" offset="0"/>
   <stop stop-color="#4b2010" offset="1"/>
  </linearGradient>
  <radialGradient id="d" cx="87.245" cy="93.023" r="29.533" gradientTransform="matrix(1.2759 -.0060428 .0056797 1.1992 -24.741 -17.677)" gradientUnits="userSpaceOnUse" xlink:href="#a"/>
  <radialGradient id="c" cx="87.245" cy="93.023" r="29.533" gradientTransform="matrix(4.8223 -.022839 .021466 4.5325 -148.97 -184.27)" gradientUnits="userSpaceOnUse" xlink:href="#a"/>
  <radialGradient id="b" cx="87.245" cy="93.023" r="29.533" gradientTransform="matrix(2.8419 -.01346 .01265 2.6711 -171.3 -163.03)" gradientUnits="userSpaceOnUse" xlink:href="#a"/>
 </defs>
 <g transform="translate(-14.815 -34.847)">
  <g transform="matrix(.37536 0 0 .37536 4.4545 15.78)">
   <g transform="matrix(2.2274 0 0 2.2274 -115.93 -109.67)">
    <path transform="matrix(.26458 0 0 .26458 14.815 34.847)" d="m193.42 289.43c12.672 34.169 57.16 58.059 108.12 58.059 47.328-7e-5 89.747-21.415 105.54-52.058 0.51808-1.0052-0.78891-0.62267-0.32798-1.649-30.105 11.425-64.612 16.929-101.39 16.93-40.703-2.1e-4 -80.189-7.5069-111.94-21.281z" fill="url(#c)"/>
    <path transform="rotate(1.304)" d="m125.15 109.78c-2e-5 2.8412-12.541 5.136-28.247 5.136-15.705 0-28.437-2.3032-28.437-5.1444-1.1e-5 -2.8412 12.731-5.1445 28.437-5.1445 15.705 0 28.247 2.3117 28.247 5.1529z" fill="#fcd0bc"/>
   </g>
   <g transform="matrix(2.2274 0 0 2.2274 -115.93 -112.85)">
    <path d="m65.558 98.345a29.533 20.446 0 0 0-0.6382 4.2266 29.533 20.446 0 0 0 1.0351 5.365 49.105 26.562 0 0 0 29.367 5.2741 49.105 26.562 0 0 0 27.293-4.4809 29.533 20.446 0 0 0 1.3715-6.1583 29.533 20.446 0 0 0-0.55759-3.9522 51.726 18.918 0 0 1-28.379 3.1016 51.726 18.918 0 0 1-29.492-3.376z" fill="url(#d)"/>
    <ellipse cx="94.493" cy="98.482" rx="28.935" ry="3.9406" fill="#fcd0bc"/>
   </g>
   <path d="m94.177 59.268a65.781 45.541 0 0 0-63.946 34.901 115.21 42.136 0 0 0 65.289 7.4183 115.21 42.136 0 0 0 62.833-6.8187 65.781 45.541 0 0 0-64.163-35.501 65.781 45.541 0 0 0-0.01693 0z" fill="url(#b)"/>
  </g>
 </g>
</svg>
